#!OML:ASF Y:\EmotionMaleHayes\Project 1\Capture day 1\Session 1\Male1.ASF
:FULLY-SPECIFIED
:DEGREES
662
root 44.2566 16.9749 -1.39273 1014.95 88.7469 1020.85
lowerback 4.45244 3.01598 -0.560329
upperback 1.598 4.01744 -0.193746
thorax -0.874435 2.01803 -0.091773
lowerneck -21.6738 -1.00184 0.881529
upperneck 23.2432 -2.23436 2.50001
head 11.154 -0.532161 0.428991
rclavicle -1.16538e-014 -1.39149e-014
rhumerus -17.2727 9.94023 -83.7161
rradius 42.6664
rwrist -2.72183
rhand -12.1979 -32.3994
rfingers 7.12502
rthumb 13.8662 -61.9171
lclavicle -1.16538e-014 -1.39149e-014
lhumerus -39.9877 5.87253 81.3275
lradius 17.2242
lwrist -33.4802
lhand -6.41016 -26.4908
lfingers 7.12502
lthumb 19.438 2.55764
rfemur 18.3559 0.0908405 19.7965
rtibia 6.55749
rfoot -19.6931 1.31191
rtoes 8.68074
lfemur -1.22986 2.10375 -14.4206
ltibia 4.99065
lfoot -1.45032 10.4663
ltoes 6.3261
663
root 44.3505 16.9876 -1.42151 1025.19 88.7945 1031.04
lowerback 4.10358 3.03582 -0.74108
upperback 1.62403 4.0389 -0.291135
thorax -0.658822 2.02828 -0.0704216
lowerneck -21.7403 -1.0449 0.700057
upperneck 23.2363 -2.28645 2.68795
head 11.1697 -0.547491 0.519425
rclavicle 4.49471e-014 -2.78299e-015
rhumerus -17.9626 9.77936 -84.1221
rradius 42.6309
rwrist -2.70681
rhand -12.2996 -32.1917
rfingers 7.12502
rthumb 13.7683 -61.7161
lclavicle 4.49471e-014 -2.78299e-015
lhumerus -39.2057 6.01754 81.2384
lradius 16.9767
lwrist -34.0592
lhand -6.07975 -26.4537
lfingers 7.12502
lthumb 19.7557 2.56235
rfemur 18.5416 0.601172 19.7336
rtibia 6.77149
rfoot -19.8929 1.01804
rtoes 9.2538
lfemur -0.549563 2.40351 -14.6328
ltibia 4.34833
lfoot -1.52327 10.1874
ltoes 7.81408
664
root 44.4432 17.0042 -1.44979 1072.96 89.0476 1078.64
lowerback 3.89328 3.0934 -1.73016
upperback 1.38408 4.07417 -0.594745
thorax -0.833994 2.04484 0.169809
lowerneck -21.3609 -1.01746 0.554598
upperneck 23.1553 -2.25649 2.96006
head 11.0728 -0.513864 0.648665
rclavicle -1.06474e-014 1.63003e-014
rhumerus -19.192 9.48695 -84.6591
rradius 42.7354
rwrist -2.62422
rhand -12.2403 -32.0085
rfingers 7.12502
rthumb 13.8254 -61.5291
lclavicle -1.06474e-014 1.63003e-014
lhumerus -38.8624 6.36694 80.8971
lradius 16.7354
lwrist -35.1369
lhand -6.13017 -26.398
lfingers 7.12502
lthumb 19.7072 2.623
rfemur 18.513 0.972317 18.6549
rtibia 7.10031
rfoot -20.1295 0.857585
rtoes 8.08391
lfemur 0.00277972 2.80773 -15.7247
ltibia 3.68404
lfoot -1.46863 9.80044
ltoes 8.81839
665
root 44.5288 17.0049 -1.48179 1049.57 88.4159 1055.27
lowerback 3.8471 3.19719 -0.913605
upperback 1.3053 4.24091 -0.537022
thorax -0.837549 2.12806 -0.231243
lowerneck -21.2389 -0.989776 0.595262
upperneck 23.1131 -2.22065 2.93801
head 11.0325 -0.498336 0.639492
rclavicle -8.11911e-015 1.19271e-015
rhumerus -20.208 9.27472 -85.1372
rradius 42.7935
rwrist -2.76819
rhand -12.3086 -31.8417
rfingers 7.12502
rthumb 13.7596 -61.3667
lclavicle -8.11911e-015 1.19271e-015
lhumerus -38.267 6.68892 80.5997
lradius 16.4738
lwrist -36.411
lhand -6.64261 -26.5414
lfingers 7.12502
lthumb 19.2145 2.52939
rfemur 18.5167 1.09135 19.3434
rtibia 7.65421
rfoot -20.3979 0.797262
rtoes 5.65002
lfemur 0.793245 3.4325 -14.8573
ltibia 3.0498
lfoot -1.3845 9.41923
ltoes 8.79468
666
root 44.617 17.0132 -1.51135 1061.32 88.2275 1066.93
lowerback 3.69015 3.22478 -1.25166
upperback 1.18891 4.26438 -0.609997
thorax -0.888394 2.13943 -0.114349
lowerneck -21.2425 -0.910341 0.739832
upperneck 23.2132 -2.07093 2.60919
head 11.0617 -0.458628 0.519376
rclavicle -4.48508e-015 1.66979e-014
rhumerus -21.2067 9.29869 -85.559
rradius 42.8187
rwrist -2.83971
rhand -12.1534 -31.911
rfingers 7.12502
rthumb 13.9092 -61.4259
lclavicle -4.48508e-015 1.66979e-014
lhumerus -37.7689 6.88201 80.5684
lradius 16.328
lwrist -37.0354
lhand -7.20594 -26.6431
lfingers 7.12502
lthumb 18.6727 2.48068
rfemur 18.4949 1.28528 18.9565
rtibia 8.18482
rfoot -20.6838 0.736134
rtoes 4.12258
lfemur 1.41405 4.04923 -15.1314
ltibia 2.46323
lfoot -1.3322 9.03442
ltoes 8.50604
667
root 44.7129 17.0221 -1.54677 1092.45 88.0378 1097.99
lowerback 3.27707 3.24683 -2.23239
upperback 1.22068 4.27247 -0.943637
thorax -0.670781 2.14348 0.114631
lowerneck -21.423 -0.812071 1.07273
upperneck 23.2907 -1.94443 2.20546
head 11.1149 -0.422479 0.336072
rclavicle 4.47266e-016 -4.37326e-015
rhumerus -22.0553 9.02938 -85.9698
rradius 42.8069
rwrist -2.63607
rhand -11.7527 -31.9038
rfingers 7.12502
rthumb 14.2953 -61.3917
lclavicle 4.47266e-016 -4.37326e-015
lhumerus -37.0583 6.62174 80.7501
lradius 16.2628
lwrist -36.8128
lhand -7.55091 -26.6557
lfingers 7.12502
lthumb 18.3409 2.49961
rfemur 18.4805 1.25219 17.4813
rtibia 8.55864
rfoot -20.6814 0.970732
rtoes 3.46231
lfemur 2.0806 4.52786 -16.434
ltibia 1.79125
lfoot -1.31529 8.56004
ltoes 7.59807
668
root 44.7867 17.0359 -1.59578 1098.15 87.9811 1103.41
lowerback 3.01267 3.18959 -2.20947
upperback 1.07188 4.19998 -1.08752
thorax -0.662086 2.10771 -0.0308588
lowerneck -21.1763 -0.800655 0.826294
upperneck 23.1116 -1.90541 2.46532
head 11.0064 -0.398181 0.477675
rclavicle 1.85864e-014 -1.39149e-014
rhumerus -23.0786 8.82699 -86.3277
rradius 42.6694
rwrist -2.48488
rhand -11.5952 -31.5454
rfingers 7.12502
rthumb 14.447 -61.0226
lclavicle 1.85864e-014 -1.39149e-014
lhumerus -36.5371 6.50993 80.8825
lradius 16.4232
lwrist -36.7836
lhand -7.6373 -26.6038
lfingers 7.12502
lthumb 18.2578 2.55932
rfemur 18.0023 0.789936 16.8125
rtibia 9.30663
rfoot -20.6652 1.4146
rtoes 3.00008
lfemur 2.2985 4.86636 -16.8963
ltibia 1.41537
lfoot -1.30797 8
ltoes 6.62097
669
root 44.858 17.0339 -1.62376 1121.32 87.0238 1126.69
lowerback 3.38658 3.29904 -3.66285
upperback 0.838271 4.28034 -1.45758
thorax -1.18859 2.15839 0.357707
lowerneck -21.0554 -0.772157 0.862206
upperneck 23.4193 -1.81371 2.2483
head 11.0938 -0.373776 0.409098
rclavicle 2.50717e-014 7.95139e-016
rhumerus -24.4285 8.54804 -86.6922
rradius 42.5642
rwrist -2.32529
rhand -11.4589 -30.8093
rfingers 7.12502
rthumb 14.5784 -60.277
lclavicle 2.50717e-014 7.95139e-016
lhumerus -36.0879 6.052 81.1702
lradius 16.2538
lwrist -36.6361
lhand -8.06177 -26.5603
lfingers 7.12502
lthumb 17.8494 2.64058
rfemur 17.9959 1.10042 15.0551
rtibia 9.98928
rfoot -20.7658 1.64621
rtoes 3.0836
lfemur 2.87814 5.42718 -18.5108
ltibia 1.03613
lfoot -1.38265 7.69976
ltoes 7.25977
670
root 44.9188 17.0443 -1.64162 1112.59 86.8668 1117.81
lowerback 3.28485 3.38999 -3.53591
upperback 0.794657 4.40813 -1.40563
thorax -1.17564 2.22132 0.339149
lowerneck -21.2127 -0.638527 1.25703
upperneck 23.3467 -1.6688 1.89043
head 11.0881 -0.32142 0.234288
rclavicle -1.34304e-014 1.70955e-014
rhumerus -25.1963 8.22482 -87.0109
rradius 42.4246
rwrist -2.29906
rhand -11.2719 -30.3
rfingers 7.12502
rthumb 14.7586 -59.7545
lclavicle -1.34304e-014 1.70955e-014
lhumerus -35.347 5.65185 81.502
lradius 16.455
lwrist -36.2144
lhand -8.51416 -26.5507
lfingers 7.12502
lthumb 17.4141 2.68923
rfemur 17.4901 1.96119 15.7119
rtibia 11.0025
rfoot -21.0858 0.98475
rtoes 1.59796
lfemur 3.11625 5.93169 -17.9519
ltibia 0.745816
lfoot -1.45082 7.54593
ltoes 8.14975
671
root 44.9953 17.0491 -1.66369 1107.82 86.6003 1113.09
lowerback 3.25655 3.43206 -3.57647
upperback 0.805259 4.46458 -1.3937
thorax -1.1548 2.24923 0.373163
lowerneck -21.3409 -0.527499 1.71272
upperneck 23.339 -1.52212 1.33102
head 11.0993 -0.288116 -0.0234905
rclavicle -4.3509e-014 1.86858e-014
rhumerus -25.9791 8.08219 -87.4004
rradius 42.1631
rwrist -2.41299
rhand -11.1743 -30.8746
rfingers 7.12502
rthumb 14.8526 -60.3223
lclavicle -4.3509e-014 1.86858e-014
lhumerus -34.7771 5.04784 81.9072
lradius 16.7811
lwrist -35.0742
lhand -9.04744 -26.6919
lfingers 7.12502
lthumb 16.9008 2.59269
rfemur 17.2838 2.65312 16.0214
rtibia 11.8725
rfoot -21.3083 0.523752
rtoes -0.0518519
lfemur 3.75019 6.31781 -17.6871
ltibia 0.290808
lfoot -1.50349 7.43052
ltoes 9.16255
